<?xml version="1.0" encoding="utf-8"?>
<!-- Generator: Adobe Illustrator 24.1.2, SVG Export Plug-In . SVG Version: 6.00 Build 0)  -->
<svg version="1.1" id="Layer_1" xmlns="http://www.w3.org/2000/svg" xmlns:xlink="http://www.w3.org/1999/xlink" x="0px" y="0px"
	 viewBox="0 0 558.86 122.13" style="enable-background:new 0 0 558.86 122.13;" xml:space="preserve">
<style type="text/css">
	.st0{fill:#F26B3B;}
</style>
<path class="st0" d="M429.96,63.11v-4.25l1.77,4.25h1.13l1.77-4.25v4.25h1.12v-6.67h-1.23l-2.22,5.35l-2.22-5.35h-1.23v6.67H429.96z
	 M424.89,57.48v5.64h1.17v-5.64h1.97v-1.03h-5.12v1.03H424.89z M403.39,62.8c0-1.89,2.23-3.2,4.98-3.2c3.03,0,5.61,1.83,6.98,5.09
	l4.29-2.52c-2.06-4.75-5.49-7.04-11.38-7.04c-2.8,0-5.15,0.74-7.15,2.17c-2,1.43-2.97,3.32-2.97,5.78c0,4.4,3.2,7.27,9.67,8.58
	c4.8,0.92,6.69,2.12,6.69,4.4c0,2.46-2.35,4.06-5.38,4.06c-3.6,0-6.23-2.12-7.84-6.41l-4.75,2.97c1.83,4.98,6.18,8.41,12.53,8.41
	c3.37,0,6.06-0.86,8.01-2.63c2-1.77,2.97-4,2.97-6.58c0-4.75-2.97-7.21-9.55-8.58C405.73,66.41,403.39,65.09,403.39,62.8
	 M394.29,55.43c-0.86-0.17-1.54-0.29-2.12-0.29c-3.72,0-6.41,1.89-8.18,5.61v-4.8h-5.84v28.37H384V69.38c0-5.03,2.97-8.75,7.09-8.75
	c0.74,0,1.49,0.11,2.23,0.34L394.29,55.43z M358.03,59.83c4.29,0,7.84,2.75,8.29,7.09h-16.93C350.36,62.8,353.85,59.83,358.03,59.83
	 M371.87,69.33c0-4.18-1.26-7.55-3.83-10.18c-2.52-2.69-5.84-4-9.9-4c-4.06,0-7.55,1.43-10.35,4.23c-2.8,2.8-4.23,6.41-4.23,10.75
	c0,4.35,1.37,7.95,4.18,10.75c2.8,2.8,6.18,4.23,10.12,4.23c6.06,0,10.47-2.75,13.16-8.29l-4.52-2.69
	c-1.83,3.83-4.12,5.89-8.47,5.89c-4.98,0-8.41-3.55-8.64-8.64h22.48V69.33z M318.96,44.27v40.04h5.84V72.53l2.63-2.63l9.1,14.42
	h6.81L331.6,65.78l10.01-9.84h-7.15l-9.67,9.55V44.27H318.96z M308.89,74.02c-2.06,3.83-4.35,5.72-8.47,5.72
	c-5.21,0-8.81-3.72-8.81-9.61c0-5.89,3.78-9.61,8.81-9.61c3.66,0,6.35,1.83,8.12,5.43l4.63-3.09c-2.06-4.81-6.64-7.72-12.81-7.72
	c-4.06,0-7.55,1.43-10.41,4.23c-2.86,2.8-4.29,6.41-4.29,10.75c0,4.4,1.43,8.01,4.23,10.81c2.8,2.8,6.29,4.18,10.47,4.18
	c5.95,0,10.3-2.75,13.04-8.18L308.89,74.02z M265.36,80.25c-2.8,0-4.75-1.66-4.75-4.23c0-2.57,1.83-4.18,5.49-4.8l7.67-1.32v0.8
	C273.77,76.19,270.39,80.25,265.36,80.25 M281.32,84.31c-1.14-1.89-1.72-4.23-1.72-7.09V64.75c0-6.23-4.06-9.61-11.78-9.61
	c-3.43,0-6.18,0.8-8.29,2.46c-2.12,1.66-3.15,3.6-3.15,5.95c0,0.8,0.17,1.54,0.46,2.29l5.21-1.77c-0.06-0.29-0.11-0.57-0.11-0.86
	c0-2.12,2.06-3.72,5.89-3.72c3.95,0,5.95,1.66,5.95,4.92v1.2l-8.98,1.43c-5.89,0.92-10.01,4-10.01,9.32c0,5.21,3.95,8.75,9.67,8.75
	c4.4,0,7.55-1.94,9.44-5.78c0.06,2.17,0.63,3.83,1.6,4.98H281.32z M252.49,55.43c-0.86-0.17-1.54-0.29-2.12-0.29
	c-3.72,0-6.41,1.89-8.18,5.61v-4.8h-5.83v28.37h5.83V69.38c0-5.03,2.97-8.75,7.09-8.75c0.74,0,1.49,0.11,2.23,0.34L252.49,55.43z
	 M218.57,49.88v34.44h6.18V49.88h12.36v-5.61h-30.89v5.61H218.57z M204.38,55.43c-0.86-0.17-1.54-0.29-2.12-0.29
	c-3.72,0-6.41,1.89-8.18,5.61v-4.8h-5.84v28.37h5.84V69.38c0-5.03,2.97-8.75,7.09-8.75c0.74,0,1.49,0.11,2.23,0.34L204.38,55.43z
	 M168.12,59.83c4.29,0,7.84,2.75,8.29,7.09h-16.93C160.45,62.8,163.94,59.83,168.12,59.83 M181.96,69.33
	c0-4.18-1.26-7.55-3.83-10.18c-2.52-2.69-5.83-4-9.9-4c-4.06,0-7.55,1.43-10.35,4.23c-2.8,2.8-4.23,6.41-4.23,10.75
	c0,4.35,1.37,7.95,4.18,10.75c2.8,2.8,6.18,4.23,10.12,4.23c6.06,0,10.47-2.75,13.16-8.29l-4.52-2.69
	c-1.83,3.83-4.12,5.89-8.47,5.89c-4.98,0-8.41-3.55-8.64-8.64h22.48V69.33z M135,59.83c4.29,0,7.84,2.75,8.29,7.09h-16.93
	C127.33,62.8,130.82,59.83,135,59.83 M148.84,69.33c0-4.18-1.26-7.55-3.83-10.18c-2.52-2.69-5.83-4-9.9-4s-7.55,1.43-10.35,4.23
	c-2.8,2.8-4.23,6.41-4.23,10.75c0,4.35,1.37,7.95,4.18,10.75c2.8,2.8,6.18,4.23,10.12,4.23c6.06,0,10.47-2.75,13.16-8.29l-4.52-2.69
	c-1.83,3.83-4.12,5.89-8.47,5.89c-4.98,0-8.41-3.55-8.64-8.64h22.48V69.33z M118.64,55.43c-0.86-0.17-1.54-0.29-2.12-0.29
	c-3.72,0-6.41,1.89-8.18,5.61v-4.8h-5.83v28.37h5.83V69.38c0-5.03,2.97-8.75,7.09-8.75c0.74,0,1.49,0.11,2.23,0.34L118.64,55.43z
	 M80.94,80.25c-2.8,0-4.75-1.66-4.75-4.23c0-2.57,1.83-4.18,5.49-4.8l7.67-1.32v0.8C89.35,76.19,85.97,80.25,80.94,80.25
	 M96.9,84.31c-1.14-1.89-1.72-4.23-1.72-7.09V64.75c0-6.23-4.06-9.61-11.78-9.61c-3.43,0-6.18,0.8-8.29,2.46
	c-2.12,1.66-3.15,3.6-3.15,5.95c0,0.8,0.17,1.54,0.46,2.29l5.21-1.77c-0.06-0.29-0.11-0.57-0.11-0.86c0-2.12,2.06-3.72,5.89-3.72
	c3.95,0,5.95,1.66,5.95,4.92v1.2l-8.98,1.43c-5.89,0.92-10.01,4-10.01,9.32c0,5.21,3.95,8.75,9.67,8.75c4.4,0,7.55-1.94,9.44-5.78
	c0.06,2.17,0.63,3.83,1.6,4.98H96.9z M60.98,71.21c-2.92,5.55-7.09,8.29-12.64,8.29c-3.95,0-7.21-1.43-9.78-4.29
	c-2.57-2.92-3.89-6.52-3.89-10.87c0-4.4,1.32-8.01,4-10.93c2.69-2.92,5.89-4.35,9.72-4.35c5.32,0,9.44,2.75,12.3,8.29l4.92-3.55
	c-2.8-6.24-9.1-10.35-17.1-10.35c-5.66,0-10.41,1.94-14.3,5.89s-5.83,8.92-5.83,14.93c0,6.12,1.89,11.1,5.61,14.99
	c3.78,3.89,8.52,5.83,14.24,5.83c4.18,0,7.55-0.86,10.18-2.52c2.69-1.72,5.09-4.4,7.32-8.01L60.98,71.21z M524.72,52.14
	c-0.17,0.15-0.38,0.23-0.59,0.23c-0.24,0-0.48-0.1-0.66-0.29c-0.33-0.37-0.3-0.92,0.07-1.25c0.36-0.33,0.92-0.3,1.25,0.07
	C525.11,51.25,525.08,51.81,524.72,52.14 M522.41,49.43c-0.17,0.26-0.45,0.39-0.74,0.39c-0.17,0-0.34-0.05-0.49-0.15
	c-0.41-0.27-0.51-0.82-0.24-1.23c0.27-0.41,0.82-0.51,1.23-0.24C522.57,48.47,522.68,49.02,522.41,49.43 M522.09,54.11
	c-0.17,0.17-0.4,0.26-0.63,0.26c-0.22,0-0.45-0.08-0.62-0.26c-0.35-0.34-0.35-0.91,0-1.25v0c0.34-0.35,0.9-0.35,1.25,0
	C522.44,53.21,522.44,53.77,522.09,54.11 M519.34,56.74c-0.13,0.07-0.27,0.1-0.41,0.1c-0.32,0-0.63-0.17-0.79-0.48
	c-0.22-0.43-0.06-0.97,0.38-1.19l0.41,0.79l-0.41-0.79c0.44-0.23,0.97-0.06,1.2,0.38C519.95,55.98,519.78,56.52,519.34,56.74
	 M517.99,46.46c0.28-0.41,0.83-0.51,1.23-0.24c0.41,0.27,0.51,0.83,0.24,1.23c-0.17,0.25-0.45,0.39-0.74,0.39
	c-0.17,0-0.34-0.05-0.49-0.15C517.83,47.42,517.72,46.86,517.99,46.46 M516.67,45.3c-0.17,0.16-0.39,0.24-0.61,0.24
	c-0.24,0-0.47-0.09-0.65-0.28c-0.34-0.36-0.32-0.92,0.04-1.25c0.36-0.34,0.92-0.32,1.25,0.03C517.04,44.4,517.02,44.96,516.67,45.3
	 M515.76,57.84c-0.07,0.02-0.14,0.03-0.21,0.03c-0.4,0-0.76-0.27-0.86-0.67c-0.12-0.48,0.17-0.96,0.65-1.07
	c0.47-0.12,0.96,0.17,1.08,0.64C516.53,57.23,516.24,57.71,515.76,57.84 M512.1,58.25c-0.02,0-0.05,0-0.07,0
	c-0.45,0-0.84-0.35-0.89-0.81c-0.04-0.49,0.32-0.92,0.81-0.96c0.49-0.04,0.92,0.32,0.96,0.81C512.95,57.77,512.59,58.21,512.1,58.25
	 M508.49,58.41h-0.02c-0.49-0.01-0.88-0.41-0.87-0.91c0.01-0.49,0.41-0.88,0.9-0.87c0.49,0.01,0.88,0.42,0.87,0.9
	C509.36,58.03,508.97,58.41,508.49,58.41 M504.98,57.95c-0.05,0-0.1,0-0.16-0.01c-0.48-0.09-0.8-0.55-0.72-1.03
	c0.09-0.48,0.55-0.8,1.03-0.72v0c0.48,0.09,0.8,0.55,0.71,1.03C505.77,57.65,505.4,57.95,504.98,57.95 M502.37,56.53
	c-0.15,0.34-0.47,0.54-0.82,0.54c-0.12,0-0.23-0.02-0.35-0.07c-0.45-0.19-0.66-0.72-0.47-1.17c0.19-0.45,0.71-0.66,1.17-0.47
	C502.35,55.56,502.56,56.08,502.37,56.53 M499.33,54.75c-0.17,0.25-0.45,0.38-0.73,0.38c-0.18,0-0.35-0.05-0.51-0.16
	c-0.4-0.28-0.5-0.83-0.22-1.24c0.28-0.4,0.83-0.5,1.24-0.22h0C499.51,53.79,499.61,54.35,499.33,54.75 M496.32,52.87
	c-0.17,0.28-0.46,0.43-0.76,0.43c-0.15,0-0.31-0.04-0.45-0.12h0c-0.42-0.25-0.56-0.79-0.31-1.21c0.25-0.42,0.79-0.56,1.22-0.31h0
	C496.43,51.9,496.57,52.45,496.32,52.87 M493.59,50.68c-0.17,0.15-0.38,0.22-0.58,0.22c-0.25,0-0.49-0.1-0.67-0.3
	c-0.32-0.37-0.29-0.93,0.08-1.25c0.37-0.32,0.93-0.29,1.25,0.08l0,0C493.99,49.79,493.96,50.35,493.59,50.68 M491,48.26
	c-0.17,0.26-0.45,0.4-0.74,0.4c-0.17,0-0.33-0.05-0.48-0.14h0c-0.41-0.27-0.52-0.82-0.26-1.23c0.27-0.41,0.82-0.52,1.23-0.25
	C491.16,47.31,491.27,47.86,491,48.26 M488.09,46.25c-0.17,0.26-0.45,0.4-0.74,0.4c-0.17,0-0.34-0.05-0.49-0.15v0
	c-0.41-0.27-0.52-0.82-0.25-1.23c0.27-0.41,0.82-0.52,1.23-0.25C488.25,45.29,488.36,45.84,488.09,46.25 M485.26,47.19
	c-0.13,0.37-0.47,0.6-0.84,0.6c-0.1,0-0.19-0.01-0.29-0.05v0c-0.47-0.16-0.72-0.67-0.56-1.14c0.16-0.47,0.67-0.72,1.14-0.56
	C485.17,46.21,485.42,46.72,485.26,47.19 M483.57,43.44c0.26-0.42,0.8-0.55,1.22-0.3c0.42,0.25,0.55,0.8,0.3,1.22
	c-0.17,0.27-0.46,0.43-0.76,0.43c-0.16,0-0.32-0.04-0.46-0.13h0C483.45,44.4,483.32,43.86,483.57,43.44 M482.12,42.42
	c-0.18,0.23-0.44,0.36-0.71,0.36c-0.18,0-0.37-0.06-0.53-0.18c-0.39-0.3-0.47-0.85-0.18-1.24c0.29-0.39,0.85-0.47,1.24-0.18h0
	C482.33,41.48,482.41,42.03,482.12,42.42 M481.93,45.91c-0.1,0.4-0.47,0.67-0.87,0.67c-0.07,0-0.15-0.01-0.22-0.03
	c-0.48-0.13-0.77-0.62-0.64-1.09c0.13-0.48,0.61-0.77,1.09-0.64C481.76,44.94,482.05,45.43,481.93,45.91 M479.26,40.32
	c-0.16,0.29-0.46,0.45-0.77,0.45c-0.15,0-0.3-0.04-0.44-0.11c-0.43-0.24-0.57-0.78-0.33-1.21c0.24-0.43,0.78-0.58,1.21-0.34
	C479.35,39.35,479.5,39.89,479.26,40.32 M477.59,45.78h-0.01c-0.49,0-0.89-0.39-0.89-0.88c-0.01-0.5,0.39-0.9,0.88-0.91
	c0.49-0.01,0.9,0.39,0.91,0.88C478.48,45.37,478.09,45.77,477.59,45.78 M476.05,38.84c-0.14,0.34-0.47,0.55-0.82,0.55
	c-0.11,0-0.22-0.02-0.33-0.07c-0.46-0.19-0.67-0.7-0.49-1.16c0.19-0.45,0.7-0.67,1.16-0.48v0
	C476.02,37.87,476.23,38.39,476.05,38.84 M474.24,46.5c-0.05,0.01-0.11,0.01-0.16,0.01c-0.43,0-0.81-0.3-0.88-0.74
	c-0.09-0.49,0.24-0.95,0.73-1.04v0c0.49-0.09,0.95,0.24,1.04,0.72C475.05,45.94,474.73,46.41,474.24,46.5 M472.74,37.58
	c-0.12,0.38-0.47,0.63-0.85,0.63c-0.09,0-0.17-0.01-0.26-0.04h0c-0.47-0.14-0.73-0.64-0.59-1.1c0.14-0.47,0.64-0.74,1.11-0.59l0,0
	C472.61,36.61,472.88,37.11,472.74,37.58 M470.87,47.58c-0.05,0.01-0.1,0.01-0.15,0.01c-0.43,0-0.81-0.31-0.88-0.74
	c-0.09-0.49,0.24-0.95,0.73-1.04h0c0.49-0.08,0.95,0.24,1.03,0.73C471.68,47.03,471.35,47.49,470.87,47.58 M468.03,48.86l-0.54-0.71
	L468.03,48.86c-0.16,0.12-0.35,0.18-0.54,0.18c-0.27,0-0.54-0.12-0.72-0.36c-0.3-0.39-0.22-0.96,0.18-1.25
	c0.4-0.3,0.96-0.22,1.25,0.18C468.5,48,468.42,48.56,468.03,48.86 M465.07,50.99L465.07,50.99c-0.15,0.1-0.32,0.14-0.48,0.14
	c-0.3,0-0.58-0.14-0.75-0.41c-0.27-0.42-0.15-0.97,0.27-1.24c0.42-0.27,0.97-0.15,1.24,0.27C465.6,50.16,465.49,50.72,465.07,50.99
	 M462.25,53.16c-0.15,0.1-0.32,0.15-0.49,0.15c-0.29,0-0.58-0.14-0.75-0.4c-0.27-0.41-0.16-0.97,0.26-1.24h0
	c0.41-0.27,0.96-0.16,1.24,0.26C462.77,52.34,462.66,52.89,462.25,53.16 M461.44,81.04L461.44,81.04c0.35,0.34,0.36,0.91,0.02,1.26
	c-0.17,0.18-0.41,0.27-0.64,0.27c-0.22,0-0.45-0.08-0.62-0.25c-0.35-0.35-0.36-0.91-0.02-1.27
	C460.52,80.71,461.08,80.7,461.44,81.04 M462.82,83.48c0.39-0.3,0.95-0.22,1.25,0.17c0.3,0.39,0.23,0.95-0.17,1.25
	c-0.16,0.13-0.35,0.19-0.54,0.19c-0.27,0-0.53-0.12-0.71-0.35C462.36,84.34,462.43,83.78,462.82,83.48 M465.25,86.09
	c0.32-0.38,0.88-0.43,1.26-0.11c0.38,0.32,0.43,0.88,0.11,1.26c-0.18,0.21-0.43,0.32-0.69,0.32c-0.2,0-0.41-0.07-0.57-0.21
	C464.98,87.03,464.93,86.46,465.25,86.09 M468.25,87.98c0.11-0.48,0.59-0.78,1.07-0.67c0.48,0.11,0.78,0.59,0.67,1.07
	c-0.09,0.41-0.46,0.69-0.87,0.69c-0.07,0-0.13-0.01-0.2-0.02C468.44,88.95,468.14,88.47,468.25,87.98 M472.65,87.86
	c0.49,0,0.9,0.4,0.9,0.89c0,0.49-0.4,0.9-0.89,0.9h0c-0.49,0-0.89-0.4-0.89-0.89C471.76,88.27,472.15,87.86,472.65,87.86
	 M459.24,56.01c-0.45-0.22-0.63-0.75-0.41-1.2c0.22-0.44,0.75-0.63,1.2-0.41c0.44,0.22,0.63,0.75,0.41,1.2
	c-0.16,0.32-0.47,0.5-0.81,0.5C459.5,56.1,459.36,56.07,459.24,56.01 M459.05,79.67c-0.17,0.16-0.39,0.23-0.6,0.23
	c-0.24,0-0.48-0.1-0.66-0.29c-0.33-0.37-0.31-0.93,0.06-1.27c0.36-0.33,0.93-0.31,1.26,0.06C459.44,78.76,459.42,79.33,459.05,79.67
	 M457.09,76.65c-0.42,0-0.8-0.3-0.88-0.73v0c-0.09-0.49,0.23-0.95,0.72-1.04c0.48-0.09,0.95,0.23,1.04,0.72
	c0.09,0.48-0.23,0.95-0.72,1.05C457.2,76.64,457.15,76.65,457.09,76.65 M455.61,72.26L455.61,72.26c-0.01-0.49,0.38-0.91,0.87-0.92
	c0.49-0.01,0.9,0.38,0.92,0.87v0c0.01,0.49-0.38,0.9-0.87,0.92c-0.01,0-0.01,0-0.02,0C456.02,73.13,455.62,72.74,455.61,72.26
	 M455.07,68.84c-0.08-0.49,0.26-0.95,0.74-1.02c0.49-0.08,0.95,0.26,1.02,0.75c0.07,0.49-0.26,0.94-0.75,1.02
	c-0.05,0.01-0.09,0.01-0.14,0.01C455.52,69.6,455.13,69.28,455.07,68.84 M454.82,65.1c0.02-0.5,0.44-0.88,0.93-0.86
	c0.49,0.02,0.88,0.44,0.86,0.93c-0.02,0.48-0.42,0.86-0.9,0.86h-0.03C455.19,66.01,454.8,65.59,454.82,65.1 M455.85,61.39
	c0.17-0.46,0.69-0.7,1.15-0.53c0.46,0.17,0.7,0.69,0.53,1.15c-0.14,0.36-0.48,0.58-0.84,0.58c-0.1,0-0.21-0.02-0.31-0.06
	C455.91,62.37,455.67,61.86,455.85,61.39 M457.43,58.14L457.43,58.14c0.19-0.46,0.72-0.66,1.18-0.47c0.45,0.2,0.66,0.72,0.46,1.18v0
	c-0.14,0.34-0.47,0.54-0.82,0.54c-0.12,0-0.24-0.02-0.36-0.07C457.45,59.12,457.24,58.6,457.43,58.14 M476.32,87.78
	c0.49,0.05,0.85,0.49,0.79,0.98c-0.05,0.46-0.44,0.8-0.89,0.8c-0.03,0-0.06,0-0.09,0c-0.49-0.05-0.85-0.5-0.79-0.99
	C475.38,88.08,475.83,87.73,476.32,87.78 M479.66,87.65L479.66,87.65c0.49-0.07,0.94,0.28,1.01,0.77c0.06,0.49-0.28,0.94-0.77,1
	c-0.04,0-0.08,0.01-0.12,0.01c-0.44,0-0.83-0.33-0.89-0.78C478.83,88.16,479.17,87.71,479.66,87.65 M482.69,86.79L482.69,86.79
	c0.41-0.27,0.97-0.16,1.24,0.25c0.27,0.41,0.16,0.97-0.25,1.24v0c-0.15,0.1-0.32,0.15-0.49,0.15c-0.29,0-0.58-0.14-0.75-0.4
	C482.16,87.62,482.28,87.06,482.69,86.79 M485.65,84.7c0.43-0.25,0.98-0.1,1.22,0.33c0.25,0.43,0.1,0.98-0.33,1.22
	c-0.14,0.08-0.3,0.12-0.45,0.12c-0.31,0-0.61-0.16-0.77-0.45C485.08,85.49,485.23,84.95,485.65,84.7 M488.17,82.71
	c0.3-0.39,0.87-0.46,1.26-0.16c0.39,0.3,0.46,0.87,0.16,1.26c-0.18,0.23-0.44,0.34-0.71,0.34c-0.19,0-0.38-0.06-0.55-0.19
	C487.93,83.66,487.86,83.1,488.17,82.71 M488.65,62.59c0.45-0.21,0.98-0.02,1.19,0.43c0.21,0.45,0.02,0.98-0.43,1.19
	c-0.12,0.06-0.25,0.09-0.38,0.09c-0.34,0-0.66-0.19-0.81-0.51C488.01,63.33,488.2,62.8,488.65,62.59 M490.26,65.78
	c0.42-0.25,0.97-0.11,1.23,0.31v0c0.25,0.42,0.11,0.97-0.31,1.23c-0.14,0.08-0.3,0.13-0.46,0.13c-0.3,0-0.6-0.16-0.77-0.44v0
	C489.69,66.58,489.83,66.03,490.26,65.78 M492.96,69.54L492.96,69.54c0.16,0.47-0.09,0.97-0.56,1.13c-0.09,0.03-0.19,0.05-0.28,0.05
	c-0.37,0-0.73-0.24-0.85-0.61c-0.16-0.47,0.1-0.98,0.56-1.13C492.3,68.82,492.8,69.07,492.96,69.54 M493.55,73.43
	c-0.06,0.45-0.44,0.79-0.89,0.79c-0.04,0-0.07,0-0.11-0.01c-0.49-0.06-0.84-0.51-0.78-1c0.06-0.49,0.51-0.84,1-0.78
	C493.26,72.5,493.61,72.94,493.55,73.43 M492.8,77.03c-0.1,0.41-0.46,0.69-0.87,0.69c-0.07,0-0.14-0.01-0.2-0.02
	c-0.48-0.11-0.78-0.59-0.67-1.08l0,0c0.11-0.48,0.6-0.78,1.08-0.67C492.62,76.07,492.92,76.55,492.8,77.03 M491.48,80.55
	L491.48,80.55c-0.16,0.32-0.48,0.51-0.81,0.51c-0.13,0-0.26-0.03-0.38-0.09c-0.45-0.21-0.64-0.74-0.42-1.19
	c0.21-0.45,0.75-0.64,1.19-0.42C491.5,79.57,491.69,80.1,491.48,80.55 M487.19,61.49c-0.16,0.32-0.48,0.51-0.81,0.51
	c-0.13,0-0.26-0.03-0.39-0.09c-0.45-0.22-0.63-0.75-0.42-1.2c0.21-0.45,0.75-0.63,1.2-0.42C487.22,60.51,487.41,61.05,487.19,61.49
	 M483.92,60.04c-0.13,0.37-0.48,0.61-0.85,0.61c-0.1,0-0.19-0.01-0.29-0.05c-0.47-0.16-0.72-0.67-0.56-1.14
	c0.16-0.47,0.67-0.72,1.14-0.56C483.83,59.07,484.08,59.58,483.92,60.04 M479.62,60.11L479.62,60.11c-0.02,0-0.04,0-0.06,0
	c-0.47,0-0.86-0.36-0.89-0.83c-0.04-0.49,0.34-0.92,0.83-0.96h0c0.49-0.04,0.92,0.34,0.96,0.83
	C480.48,59.65,480.11,60.08,479.62,60.11 M476.29,60.86c-0.07,0.02-0.15,0.03-0.22,0.03c-0.4,0-0.77-0.27-0.87-0.67
	c-0.12-0.48,0.17-0.97,0.64-1.09c0.48-0.12,0.97,0.17,1.09,0.64C477.06,60.25,476.77,60.74,476.29,60.86 M473.51,62.39
	c-0.17,0.13-0.36,0.2-0.56,0.2c-0.26,0-0.52-0.11-0.7-0.34c-0.31-0.38-0.25-0.95,0.13-1.26h0l0,0c0,0,0,0,0,0
	c0.39-0.31,0.95-0.25,1.26,0.13C473.95,61.52,473.89,62.08,473.51,62.39 M471.51,64.84L471.51,64.84c-0.16,0.32-0.47,0.5-0.8,0.5
	c-0.13,0-0.27-0.03-0.39-0.09c-0.45-0.22-0.63-0.76-0.41-1.2c0.22-0.44,0.75-0.63,1.2-0.41C471.55,63.86,471.73,64.4,471.51,64.84
	 M469.36,36.51c-0.11,0.4-0.47,0.66-0.86,0.66c-0.07,0-0.15-0.01-0.22-0.03v0c-0.47-0.12-0.76-0.61-0.63-1.08
	c0.12-0.47,0.61-0.75,1.08-0.63v0C469.2,35.55,469.48,36.04,469.36,36.51 M465.94,35.58c-0.12,0.38-0.47,0.63-0.85,0.63
	c-0.09,0-0.17-0.01-0.26-0.04c-0.47-0.14-0.73-0.64-0.59-1.11c0.14-0.47,0.64-0.73,1.11-0.59
	C465.82,34.62,466.08,35.11,465.94,35.58 M462.54,34.54c-0.11,0.39-0.47,0.64-0.85,0.64c-0.08,0-0.16-0.01-0.24-0.03
	c-0.47-0.13-0.74-0.62-0.61-1.09c0.13-0.47,0.62-0.74,1.09-0.61C462.4,33.58,462.68,34.07,462.54,34.54 M458.24,34.4
	c-0.05,0-0.09,0-0.14-0.01c-0.48-0.08-0.81-0.53-0.73-1.02c0.08-0.48,0.53-0.81,1.02-0.74c0.48,0.08,0.81,0.53,0.74,1.01
	C459.04,34.08,458.67,34.4,458.24,34.4 M454.71,34.12c-0.01,0-0.01,0-0.02,0c-0.49-0.01-0.88-0.41-0.87-0.9
	c0.01-0.49,0.41-0.88,0.9-0.87c0.49,0.01,0.88,0.42,0.87,0.91C455.58,33.73,455.19,34.12,454.71,34.12 M451.19,34.14
	c-0.01,0-0.02,0-0.03,0c-0.48,0-0.87-0.38-0.88-0.86c-0.01-0.49,0.37-0.9,0.86-0.91c0.49-0.01,0.9,0.37,0.91,0.86
	C452.06,33.72,451.67,34.13,451.19,34.14 M447.73,34.32c-0.04,0-0.07,0.01-0.11,0.01c-0.44,0-0.82-0.33-0.88-0.78
	c-0.06-0.49,0.29-0.93,0.77-0.99c0.49-0.06,0.93,0.29,0.99,0.77C448.56,33.82,448.22,34.26,447.73,34.32 M444.25,34.9
	c-0.04,0.01-0.08,0.01-0.13,0.01c-0.43,0-0.81-0.32-0.88-0.76c-0.07-0.48,0.27-0.93,0.75-1c0.48-0.07,0.93,0.27,1,0.75
	C445.07,34.38,444.73,34.83,444.25,34.9 M440.73,35.23c-0.04,0.01-0.09,0.01-0.13,0.01c-0.43,0-0.81-0.31-0.88-0.75
	c-0.07-0.48,0.26-0.94,0.74-1.01c0.49-0.07,0.94,0.26,1.01,0.74C441.55,34.71,441.21,35.16,440.73,35.23 M437.4,36.05
	c-0.08,0.02-0.17,0.04-0.25,0.04c-0.38,0-0.74-0.25-0.85-0.64c-0.14-0.47,0.13-0.96,0.6-1.1c0.47-0.14,0.96,0.13,1.1,0.6
	C438.14,35.42,437.87,35.91,437.4,36.05 M517.65,39.01l-6.81,6.81l5.56,5.56c-2.11,1.14-4.14,1.5-6.19,1.53
	c-4.02,0.02-7.89-1.63-11.27-3.7c-0.48-0.29-0.94-0.64-1.39-1.02c-1.07-0.9-2.08-1.95-3.11-2.8c-1.54-1.27-3.11-2.51-4.73-3.7
	c-3.23-2.37-6.63-4.53-10.2-6.36c-6.08-3.12-12.67-5.28-19.44-6.26c-3.05-0.44-6.19-0.71-9.27-0.71
	c-10.46,0.01-17.31,2.64-17.69,2.79l3.47,8.9l0.03,0.07C436.98,40,442.56,38,450.82,38c5.46,0.02,12.05,0.85,19.23,3.64
	c-3.75,1.17-7.54,3.34-10.96,6.81c-5.33,5.33-8.02,12.36-8.01,19.35c-0.01,6.99,2.68,14.02,8.01,19.35v0
	c4.45,4.45,10.32,6.69,16.15,6.69h0.03c5.82,0,11.68-2.24,16.12-6.69c3.88-3.88,5.84-9.01,5.84-14.1c0-5.09-1.96-10.22-5.84-14.1
	c-3.04-3.04-7.06-4.58-11.04-4.57c-3.98,0-8.01,1.53-11.04,4.57c-2.48,2.47-3.73,5.76-3.73,9h9.63c0-0.81,0.29-1.58,0.91-2.19
	c1.18-1.18,2.68-1.75,4.23-1.75c1.55,0.01,3.05,0.57,4.23,1.75c2.02,2.02,3.01,4.63,3.02,7.29c0,2.65-1,5.26-3.02,7.29
	c-2.59,2.59-5.94,3.86-9.34,3.87c-3.39-0.01-6.75-1.28-9.34-3.87c-3.47-3.48-5.19-7.98-5.2-12.54c0.01-4.55,1.72-9.06,5.19-12.54
	c4.07-4,7.73-5.03,11.35-5.08c3.61-0.02,7.22,1.29,9.88,2.7c3.42,1.78,6.29,4.44,9.73,6.2c3.3,1.68,7.92,3.45,13.36,3.46
	c0.06,0,0.12,0,0.19,0c5.38,0,11.52-2.06,16.69-7.28l3.41-3.4L517.65,39.01z"/>
</svg>
