<?xml version="1.0" encoding="UTF-8"?>
<svg xmlns="http://www.w3.org/2000/svg" width="192" height="84" viewBox="0 0 192 84" fill="none">
  <path d="M57.9685 65.1163H60.6192C61.8809 65.1163 62.5833 65.9929 62.5833 67.0255C62.5833 68.0581 61.8703 68.9375 60.6192 68.9375H59.0288V71.2124H57.9685V65.1163ZM60.4628 66.0575H59.0235V67.9963H60.4628C60.9902 68.0232 61.4409 67.6144 61.4674 67.0766C61.4939 66.5415 61.091 66.0843 60.5608 66.0575C60.5264 66.0575 60.4946 66.0575 60.4601 66.0575H60.4628Z" fill="#00365C"></path>
  <path d="M65.7363 65.1163H66.7965V68.7734C66.7965 69.7415 67.3266 70.3734 68.3365 70.3734C69.3464 70.3734 69.8686 69.7415 69.8686 68.7734V65.1163H70.9289V68.8003C70.9289 70.317 70.0754 71.3227 68.3339 71.3227C66.5924 71.3227 65.731 70.3089 65.731 68.8084L65.7363 65.1163Z" fill="#00365C"></path>
  <path d="M79.7261 66.598L77.8707 71.2124H77.4201L75.5805 66.598V71.2124H74.5203V65.1163H76.0152L77.6401 69.2198L79.2782 65.1163H80.7652V71.2124H79.7049L79.7261 66.598Z" fill="#00365C"></path>
  <path d="M84.3403 65.1163H86.991C88.25 65.1163 88.9551 65.9929 88.9551 67.0255C88.9551 68.0581 88.2421 68.9375 86.991 68.9375H85.4006V71.2124H84.3403V65.1163ZM86.8372 66.0575H85.3953V67.9963H86.8372C87.3647 68.0232 87.8153 67.6144 87.8418 67.0766C87.8684 66.5415 87.4655 66.0843 86.9353 66.0575C86.9009 66.0575 86.8691 66.0575 86.8346 66.0575H86.8372Z" fill="#00365C"></path>
  <path d="M92.1179 65.1163H93.1782V71.2124H92.1179V65.1163Z" fill="#00365C"></path>
  <path d="M97.8044 66.7701V71.2124H96.7441V65.1163H97.8256L100.898 69.4403V65.1163H101.958V71.2124H100.94L97.8044 66.7701Z" fill="#00365C"></path>
  <path d="M108.423 65.0109C109.393 64.984 110.308 65.4654 110.846 66.2828L109.982 66.7776C109.621 66.2694 109.041 65.9682 108.423 65.9709C107.233 65.9709 106.351 66.8933 106.351 68.1733C106.351 69.4533 107.233 70.3864 108.423 70.3864C108.945 70.3864 109.449 70.1928 109.847 69.8486V68.8993H108.052V67.9554H110.902V70.2412C110.273 70.9565 109.37 71.3598 108.423 71.3491C106.684 71.3491 105.269 70.096 105.269 68.184C105.269 66.2721 106.684 65.0109 108.423 65.0109Z" fill="#00365C"></path>
  <path d="M119.649 69.5241C120.142 70.0592 120.831 70.3658 121.552 70.3658C122.416 70.3658 122.758 69.9355 122.758 69.5322C122.758 68.9944 122.119 68.8196 121.39 68.6286C120.407 68.3813 119.254 68.0908 119.254 66.8001C119.254 65.7944 120.128 65.0172 121.443 65.0172C122.275 64.9849 123.086 65.2915 123.696 65.867L123.092 66.6737C122.625 66.2165 122 65.9665 121.353 65.9772C120.73 65.9772 120.335 66.2811 120.335 66.7382C120.335 67.1954 120.947 67.3675 121.66 67.5449C122.649 67.8004 123.831 68.1123 123.831 69.4273C123.831 70.4411 123.129 71.3097 121.507 71.3097C120.595 71.3527 119.704 71.0004 119.063 70.3416L119.649 69.5241Z" fill="#00365C"></path>
  <path d="M128.719 68.682L126.376 65.1163H127.584L129.241 67.7301L130.882 65.1163H132.091L129.771 68.682V71.2124H128.711L128.719 68.682Z" fill="#00365C"></path>
  <path d="M135.079 69.5241C135.569 70.0592 136.258 70.3658 136.979 70.3658C137.843 70.3658 138.188 69.9355 138.188 69.5322C138.188 68.9944 137.546 68.8196 136.818 68.6286C135.834 68.3813 134.681 68.0908 134.681 66.8001C134.681 65.7944 135.556 65.0172 136.871 65.0172C137.703 64.9849 138.514 65.2915 139.124 65.867L138.519 66.6737C138.053 66.2165 137.427 65.9665 136.78 65.9772C136.16 65.9772 135.763 66.2811 135.763 66.7382C135.763 67.1954 136.375 67.3675 137.088 67.5449C138.079 67.8004 139.259 68.1123 139.259 69.4273C139.259 70.4411 138.556 71.3097 136.934 71.3097C136.022 71.3527 135.134 71.0004 134.493 70.3416L135.079 69.5241Z" fill="#00365C"></path>
  <path d="M143.87 66.0575H142.049V65.1163H146.746V66.0575H144.93V71.2124H143.87V66.0575Z" fill="#00365C"></path>
  <path d="M149.935 65.1163H154.054V66.0575H150.99V67.6386H153.99V68.5798H150.99V70.2712H154.054V71.2124H149.935V65.1163Z" fill="#00365C"></path>
  <path d="M162.62 66.598L160.765 71.2124H160.314L158.477 66.598V71.2124H157.417V65.1163H158.904L160.548 69.2198L162.188 65.1163H163.675V71.2124H162.615L162.62 66.598Z" fill="#00365C"></path>
  <path d="M167.456 69.5241C167.946 70.0593 168.635 70.3658 169.356 70.3658C170.223 70.3658 170.565 69.9356 170.565 69.5322C170.565 68.9944 169.923 68.8196 169.194 68.6287C168.211 68.3813 167.058 68.0908 167.058 66.8001C167.058 65.7944 167.933 65.0172 169.248 65.0172C170.08 64.985 170.891 65.2888 171.501 65.867L170.899 66.6737C170.432 66.2166 169.807 65.9665 169.157 65.9772C168.537 65.9772 168.14 66.2811 168.14 66.7382C168.14 67.1954 168.754 67.3675 169.465 67.545C170.456 67.8004 171.636 68.1124 171.636 69.4273C171.636 70.4411 170.933 71.3097 169.311 71.3097C168.399 71.3527 167.511 71.0004 166.87 70.3416L167.456 69.5241Z" fill="#00365C"></path>
  <path d="M174.885 67.6336H174.58V65.4824H173.907V65.1973H175.558V65.4824H174.885V67.6336ZM177.97 65.6249L177.157 67.6336H177.069L176.255 65.6249V67.6336H175.945V65.2135H176.412L177.109 66.9775L177.803 65.2135H178.27V67.6336H177.965L177.97 65.6249Z" fill="#00365C"></path>
  <path d="M35.8846 72.1533C35.8846 72.1533 34.6759 66.3045 35.3545 64.3926C36.0331 62.4806 37.21 61.2302 38.1748 60.7811C39.1396 60.3321 40.9368 60.2433 42.2806 60.878C43.6245 61.5126 44.539 62.2951 45.8511 64.3469C47.1631 66.3986 47.9212 67.6007 47.9212 67.6007C44.3163 70.0558 40.1946 71.6155 35.8846 72.1533Z" fill="#007AC2"></path>
  <path d="M52.4985 17.2941C52.4985 17.2941 48.9758 22.0779 47.1018 22.8201C45.2278 23.5623 43.5314 23.487 42.5665 23.0568C41.6017 22.6265 40.3347 21.3142 39.9159 19.8675C39.4971 18.4208 39.4732 17.208 40.1279 14.8524C40.7826 12.4967 41.1882 11.1307 41.1882 11.1307C45.3842 12.2547 49.2568 14.3656 52.4985 17.2941Z" fill="#007AC2"></path>
  <path d="M36.6012 9.75644C36.6012 9.75644 36.1904 15.7208 35.0108 17.3665C33.8313 19.0123 32.3602 19.8943 31.3264 20.0556C30.2927 20.217 28.5194 19.8163 27.4035 18.8267C26.2875 17.8371 25.609 16.8368 24.9013 14.4973C24.1935 12.1578 23.7986 10.7998 23.7986 10.7998C27.9256 9.43644 32.3125 9.07879 36.6012 9.75644Z" fill="#007AC2"></path>
  <path d="M19.2137 12.1848C19.2137 12.1848 22.0552 17.4205 21.9412 19.448C21.8273 21.4756 21.0692 23.0272 20.2872 23.7506C19.5053 24.4739 17.8009 25.0951 16.3351 24.8773C14.8693 24.6595 13.764 24.1916 11.9191 22.6131C10.0743 21.0346 9.00342 20.1095 9.00342 20.1095C11.7468 16.6917 15.243 13.9757 19.2137 12.1848Z" fill="#007AC2"></path>
  <path d="M5.90109 23.7858C5.90109 23.7858 11.0884 26.6228 12.0851 28.3841C13.0817 30.1455 13.2646 31.8799 12.9863 32.9018C12.708 33.9236 11.6053 35.3972 10.28 36.0211C8.95464 36.645 7.7539 36.8574 5.36036 36.5589C2.96682 36.2604 1.57788 36.0507 1.57788 36.0507C2.0497 31.6755 3.53141 27.4725 5.90109 23.7858Z" fill="#007AC2"></path>
  <path d="M0.915212 40.8407C0.915212 40.8407 6.78375 40.3728 8.56499 41.3059C10.3462 42.239 11.4171 43.5863 11.7458 44.6054C12.0745 45.6246 11.9287 47.4585 11.1282 48.7224C10.3277 49.9863 9.45296 50.8172 7.27677 51.8713C5.10059 52.9254 3.83093 53.5278 3.83093 53.5278C1.89065 49.5883 0.891356 45.2427 0.915212 40.8407Z" fill="#007AC2"></path>
  <path d="M5.84131 57.9412C5.84131 57.9412 10.525 54.3163 12.5183 54.1227C14.5116 53.9291 16.1364 54.4696 16.9475 55.15C17.7586 55.8303 18.6254 57.4464 18.6307 58.9496C18.636 60.4528 18.3391 61.6387 17.0774 63.7147C15.8157 65.7907 15.0603 67.0034 15.0603 67.0034C11.3282 64.7581 8.17123 61.6549 5.84131 57.9412Z" fill="#007AC2"></path>
  <path d="M18.7896 69.4272C18.7896 69.4272 20.7881 63.8043 22.3626 62.5432C23.9371 61.282 24.9974 60.7549 26.6302 60.9727C28.0562 61.161 29.3232 61.9919 30.076 63.2369C30.8712 64.5035 31.2635 65.6571 31.3165 68.0961C31.3695 70.5351 31.3801 71.9684 31.3801 71.9684C27.0437 72.1378 22.7311 71.2665 18.7896 69.4272Z" fill="#007AC2"></path>
  <path d="M38.0484 47.3912C38.1862 44.8903 39.8561 43.6453 41.1231 42.9273C42.3902 42.2093 46.9122 40.7249 46.9122 40.7249L46.0083 38.3989C46.0083 38.3989 43.4743 39.4396 41.0012 40.3565C38.878 41.1579 36.4898 40.6577 34.8517 39.0712C33.4044 37.7266 33.6457 34.4217 34.0565 33.5048C34.4674 32.5878 36.3679 28.2637 36.3679 28.2637L33.9558 27.1209C33.9558 27.1209 32.1878 31.1195 31.6259 32.2597C31.0639 33.3999 29.614 35.4409 26.3246 35.3602C23.0351 35.2796 21.6727 30.9555 21.6727 30.9555L19.9762 26.4567L17.4846 27.5323C17.4846 27.5323 19.4117 31.8348 19.7138 33.4483C20.016 35.0617 20.2175 36.4762 18.5078 38.4043C16.7981 40.3323 13.4238 39.531 12.2364 39.211C11.0489 38.891 7.22927 36.8231 7.22927 36.8231L6.14515 39.2083C6.14515 39.2083 10.3279 40.9105 11.632 41.7199C12.8354 42.4648 14.6882 44.1105 14.6484 46.3693C14.5928 49.3892 12.8195 50.403 11.8732 51.0188C10.9269 51.6346 5.54346 53.4658 5.54346 53.4658L6.50829 55.9129C6.50829 55.9129 11.1496 53.9203 13.1349 53.5868C15.0328 53.248 16.9598 54.0036 18.1393 55.5472C19.4196 57.2655 19.2473 58.9785 18.9027 60.3472C18.5104 61.9122 16.0294 66.4971 16.0294 66.4971L18.3806 67.6588C18.3806 67.6588 20.3712 62.8185 21.397 61.2964C22.4228 59.7744 24.8428 58.7364 26.3431 59.0941C28.4636 59.5996 29.4788 60.5005 30.1415 61.7832C30.8042 63.0659 32.4953 67.9008 32.4953 67.9008L34.865 67.0511C34.865 67.0511 33.0493 62.528 32.8558 61.049C32.6331 59.3442 32.9565 57.0154 34.7271 55.6037C36.405 54.2591 38.6448 54.5092 39.7925 54.8695C40.9402 55.2299 45.3403 57.3784 45.3403 57.3784L46.4854 54.9905C46.4854 54.9905 42.687 53.4067 41.2371 52.608C39.9622 51.8846 37.9079 49.8651 38.0484 47.3912ZM26.2875 55.9183C21.5295 55.9183 17.6702 52.003 17.6702 47.1761C17.6702 42.3492 21.5295 38.4338 26.2875 38.4338C31.0454 38.4338 34.9047 42.3492 34.9047 47.1761C34.9047 52.0057 31.048 55.9183 26.2901 55.9183H26.2875Z" fill="#00365C"></path>
  <path d="M26.2901 41.1896C23.0245 41.1896 20.3791 43.8707 20.3765 47.1836C20.3738 50.4966 23.0192 53.1803 26.2848 53.183C29.5504 53.1856 32.1957 50.5019 32.1984 47.189C32.1931 43.876 29.553 41.195 26.2901 41.1896Z" fill="#00365C"></path>
  <path d="M26.294 39.0966C21.8939 39.0966 18.3261 42.7134 18.3235 47.1773C18.3235 51.6411 21.8886 55.2606 26.2887 55.2633C30.6888 55.2633 34.2565 51.6465 34.2592 47.1826C34.2539 42.7188 30.6914 39.1019 26.294 39.0966ZM26.294 53.666C22.7633 53.666 19.9006 50.7618 19.9006 47.1799C19.9006 43.5981 22.7633 40.6939 26.294 40.6939C29.8247 40.6939 32.6874 43.5981 32.6874 47.1799C32.6874 50.7618 29.8247 53.6633 26.294 53.666Z" fill="#00365C"></path>
  <path d="M65.7942 57.7262H57.9244V41.8015H55.3718V35.2213H57.9244V28.4636H65.7942V35.2213H70.2499V41.8015H65.7942V57.7262Z" fill="#00365C"></path>
  <path d="M80.6173 38.9036H80.7048C82.2183 36.1365 84.8133 34.9103 87.8828 34.9103H89.3963V42.5876C88.3148 41.9718 87.2758 41.84 86.0671 41.84C81.6988 41.84 80.6173 44.7819 80.6173 48.6407V57.7218H72.7476V35.2168H80.6173V38.9036Z" fill="#00365C"></path>
  <path d="M100.082 35.2194V47.2396C100.082 50.0927 100.773 52.1096 104.015 52.1096C107.257 52.1096 107.951 50.0927 107.951 47.2396V35.2194H115.821V48.7751C115.821 56.1889 110.676 58.4719 104.015 58.4719C97.3541 58.4719 92.2092 56.1889 92.2092 48.7751V35.2194H100.082Z" fill="#00365C"></path>
  <path d="M128.512 57.7284H121.215V38.0066H118.766V31.7653H121.215V24.1525C121.215 17.8089 123.821 12.256 130.858 12.256C132.072 12.2479 133.27 12.5356 134.349 13.1003V19.7101C133.411 19.2341 132.472 18.812 131.378 18.812C128.147 18.812 128.512 23.0957 128.512 25.2093V31.7653H134.344V38.0066H128.512V57.7284Z" fill="#007AC2"></path>
  <path d="M144.049 57.7321H136.752V12.8943H144.049V57.7321Z" fill="#007AC2"></path>
  <path d="M174.325 44.7758C174.325 52.8135 168.904 58.5762 160.878 58.5762C152.852 58.5762 147.428 52.8135 147.428 44.7758C147.428 36.7381 152.902 30.9216 160.878 30.9216C168.854 30.9216 174.325 36.679 174.325 44.7758ZM154.832 44.7758C154.832 48.2716 157.125 52.0202 160.878 52.0202C164.631 52.0202 166.924 48.2555 166.924 44.7758C166.924 41.2961 164.631 37.4776 160.878 37.4776C157.125 37.4776 154.832 41.1805 154.832 44.7758Z" fill="#007AC2"></path>
</svg>
